<?xml version="1.0" encoding="utf-8"?>
<!-- Generator: Adobe Illustrator 25.0.0, SVG Export Plug-In . SVG Version: 6.00 Build 0)  -->
<svg version="1.1" id="katman_1" xmlns="http://www.w3.org/2000/svg" xmlns:xlink="http://www.w3.org/1999/xlink" x="0px" y="0px"
	 viewBox="0 0 560 400" style="enable-background:new 0 0 560 400;" xml:space="preserve">
<style type="text/css">
	.st0{fill:#C03641;}
</style>
<path class="st0" d="M280,50c-82.7,0-150,67.3-150,150s67.3,150,150,150s150-67.3,150-150S362.7,50,280,50z M280,343
	c-78.9,0-143-64.1-143-143S201.1,57,280,57s143,64.1,143,143S358.9,343,280,343z M280,87.4c-62.1,0-112.7,50.5-112.7,112.7
	S217.9,312.7,280,312.7S392.7,262.1,392.7,200S342.1,87.4,280,87.4z M280,305.7c-58.3,0-105.7-47.3-105.7-105.7S221.7,94.3,280,94.3
	S385.7,141.7,385.7,200S338.3,305.7,280,305.7L280,305.7z M208.3,124.1v96.3c0,22.4,12.2,43.9,35.6,62.7c17.2,14,34.2,21.4,35,21.6
	l1.4,0.6l1.4-0.6c0.8-0.4,17.6-7.8,34.8-21.6c23-18.6,35.4-39.5,35.4-61.1v-97.9H208.3z M344.5,131.1V183H215.3v-51.9H344.5z
	 M314.2,258.7H309c-5-0.2-8.2-0.4-11.4-0.8c-3.4-0.4-6.4-0.6-10.8-0.6c-1.8,0-3,0.4-4.2,1v-51.9c0.4-0.2,1-0.6,2-0.8
	c0,0,3.2-0.6,6.6-0.2l6,0.6c3.4,0.4,6.2,0.8,9,0.8h8V258.7z M276.8,258.1c-1-0.4-2.2-0.8-3.6-0.8c-4.2,0-7.4,0.2-10.8,0.6
	c-3.2,0.4-6.6,0.6-11.4,0.8h-5.2v-52.1h8c2.6,0,5.6-0.4,9-0.8l5.8-0.6c3.6-0.4,6.8,0.2,6.8,0.2c0.6,0.2,1.2,0.4,1.6,0.6L276.8,258.1
	z M215.3,220.4V190h61.5v8.8c-0.4,0-4.4-1-8.8-0.4l-6,0.6c-3.2,0.4-6,0.6-8.6,0.8h-7.6h-7.2v9.2h-6.8v8.4h6.8v11h-6.8v8.4h6.8v8.8
	h-6.8v8.4h6.8v11.4l3.4,0.2c0.2,0,4.2,0.2,9,0.2c5.2-0.2,8.6-0.4,12-0.8c3.2-0.2,6.2-0.6,10-0.6c1.2,0,1.6,0.4,2.2,1.4
	c0.4,0.4,0.8,1,1.6,1.6v28.6C261.8,288.3,215.3,261.5,215.3,220.4L215.3,220.4z M282.6,296.3v-29.2c0.8-0.6,1.2-1.2,1.6-1.6
	c0.8-1,1.2-1.4,2.6-1.4c4,0,6.8,0.2,10,0.6c3.2,0.4,6.8,0.6,12,0.8c5.2,0.2,9-0.2,9-0.2l3.4-0.2v-9.6h6.2v-8.4h-6.2v-8.8h6.6V230
	h-6.6v-11h6.2v-8.4h-6.2v-11.2h-7h-7.6c-2.4,0-5.2-0.4-8.4-0.8l-6-0.6c-4.6-0.6-8.6,0.4-8.8,0.4c-0.2,0-0.4,0-0.6,0.2v-8.8h61.9
	v32.4C344.5,261.9,297,289.1,282.6,296.3L282.6,296.3z M234.1,171.6c5,3.2,12.2,7.6,12.4,7.8l1.8,1l1.8-1c0.4-0.2,8.4-4.6,13.2-7.8
	c4.2-2.6,6-5.6,6.2-9v-24.6v-3.6h-41.9v28.2C227.9,165.8,230.1,168.8,234.1,171.6z M262.4,162.1c0,1.6-2,3-3,3.6
	c-3.4,2.2-8.4,5.2-11,6.6c-2.4-1.6-7.2-4.4-10.6-6.6c-2.4-1.8-3.4-3-3.4-3.6v-7.6h28v1.2C262.6,159.3,262.6,161.7,262.4,162.1z
	 M262.4,141.5v6h-27.8v-6H262.4z M298.8,171.4c5,3.2,12.2,7.6,12.4,7.8l1.8,1l1.8-1c0.4-0.2,8.4-4.6,13.2-7.8c4.2-2.6,6-5.6,6.2-9
	v-24.6v-3.6h-41.9v28.4C292.6,165.6,294.8,168.6,298.8,171.4z M327.3,162.3c0,1.4-2,2.8-3,3.4c-3.4,2.2-8.4,5.2-11,6.6
	c-2.4-1.6-7.2-4.4-10.4-6.6c-2.4-1.8-3.4-3-3.4-3.6v-0.8c0,0,10.8-7.8,13.8-10c2.6,1.8,11.4,7.6,14.2,9.4
	C327.5,161.5,327.5,161.9,327.3,162.3C327.3,162.1,327.3,162.3,327.3,162.3z M299.4,141.3h28v11l-14.4-9.4l-1.8,1.6l-11.8,8.6v-3.2
	C299.4,146.9,299.4,143.9,299.4,141.3L299.4,141.3z M298.8,213.2l8.8,0.2v3.8l-8.8-0.2c-1.6,0-3-0.2-5-0.4l-3-0.4h-1.6l-0.2-3.6h2
	l3,0.4C296,213,297.6,213.2,298.8,213.2L298.8,213.2z M298.8,224.6l8.8,0.2v3.8l-8.8-0.2c-1.6,0-3-0.2-5-0.4l-3-0.4h-1.6L289,224h2
	l3,0.4C296,224.4,297.6,224.6,298.8,224.6L298.8,224.6z M289.4,238.7l-0.2-3.8h2l3.2,0.4c1.8,0.2,3.2,0.4,4.4,0.4l4.2,0.2l4.8,0.2
	v3.8l-4.8-0.2l-4.2-0.2c-1.4,0-3-0.2-4.8-0.4l-3.2-0.4H289.4z M298.8,246.9l8.8,0.2v3.8l-8.8-0.2c-1.4,0-3-0.2-4.8-0.4
	c0,0-3-0.4-3.2-0.4h-1.6l-0.2-3.8h2l3.2,0.4C296,246.7,297.6,246.9,298.8,246.9z M252,217v-3.8l8.8-0.2c1.4,0,2.8-0.2,4.8-0.4
	l2.8-0.4h1.8v3.8h-1.6l-2.8,0.4c-1.8,0.2-3.6,0.4-5,0.4L252,217z M268.4,223.8h1.8v3.8h-1.6L266,228c-1.8,0.2-3.6,0.4-5,0.4
	l-8.8,0.2L252,225l8.8-0.2c1.4,0,2.8-0.2,4.8-0.4C265.4,224,268.4,223.8,268.4,223.8L268.4,223.8z M268.4,235h1.8v3.8h-1.6l-3,0.4
	c-1.8,0.2-3.4,0.4-4.8,0.4h-1l-8,0.2V236l8-0.2h1c1.4,0,2.8-0.2,4.6-0.4L268.4,235z M268.4,246.3h1.8v3.8h-1.6l-2.8,0.4
	c-1.8,0.2-3.6,0.4-5,0.4H260l-7.6,0.2v-3.8l7.6-0.2h1.4c1.4,0,2.8-0.2,4.8-0.4C265.6,246.3,268.4,246.3,268.4,246.3L268.4,246.3z
	 M262,77l-1.2-12.8l4-0.4l1,11.8c0.4,3.4,1.6,5.6,4.6,5.2c3-0.2,4-2.6,3.6-6L273,63l4-0.4l1.2,12.8c0.4,5.4-2.4,8-7.6,8.4
	C265.6,84.4,262.4,82.2,262,77z M201.1,113.3l-12.8-15.6l9-7.4l2,2.4l-6,5l3.2,4l5.4-4.6l2,2.4l-5.4,4.6l3.6,4.4l6-5l2,2.4
	L201.1,113.3z M235.7,91.7l-6.8-19l3.8-1.4l5.8,16l7.4-2.6l1.2,3L235.7,91.7z M292,83.6l-3.8-0.6l2.6-20l5,0.6l5.4,16l2-15l3.8,0.6
	l-2.6,20l-5-0.6l-5.4-16L292,83.6z M183.7,132.5l-15.4-12.8l3.2-3.8l16.4,3.8l-11.8-9.6l2.4-3l15.4,12.8l-3.2,3.8l-16.4-3.8
	l11.8,9.6L183.7,132.5z M174.1,148.7l-7.4-4l0.6-1.2c0.8-1.6,1.6-1.8,3.2-1.6l6.6,1l2-4l-8.6-1c-1,0-2.2,0-2.8,1
	c1-2.4-0.2-4.8-2.2-5.8c-5-2.6-7.2,1.8-9.2,5.6l-2,3.8l17.8,9.4L174.1,148.7z M164.6,142.1l-0.6,1.2l-4.8-2.6l0.6-1.2
	c1-1.8,2-3.6,4.4-2.4C166.4,138.1,165.4,140.3,164.6,142.1z M387.7,153.9l18.8-7.8l1.6,3.8l-18.8,7.6L387.7,153.9z M317.4,88.7
	l-3.8-1.2l6-19.2l3.8,1.2L317.4,88.7z M409.6,166.2l-1.4-5.4l3-0.8l3.8,15l-3,0.8l-1.4-5.4l-16.6,4.2l-1-4L409.6,166.2z M405,192.2
	l12-8l0.2,4.8l-8.4,5.2l8.6,4.4l0.2,4.2l-12.6-6.4l-8,0.4l-0.2-4L405,192.2z M386.5,139.7c3.4-1.8-2.4-8.6,3.2-12
	c4-2.2,7-0.2,8.8,2.8c1,1.6,1.6,3,1.8,4.6l-3,1.4c-0.2-1.4-0.6-2.6-1.4-4c-0.8-1.2-2-2.4-4-1.4c-3,1.8,2.6,8.6-3.2,12
	c-3.8,2.2-7,0.2-9-3.4c-1.2-1.8-1.4-2.8-1.8-4.8l3.4-1.6c0,1.6,0.4,3.2,1.2,4.6C383.3,139.1,384.9,140.5,386.5,139.7L386.5,139.7z
	 M366.1,120.5l6.2-5.4l0.8,1c1.2,1.4,1,2,0.2,3.4l-3.2,6l3,3.4l3.8-7.6c0.4-1,0.8-2,0.2-3c1.8,1.8,4.6,1.6,6.2,0
	c4.2-3.8,0.8-7.4-2-10.8l-2.8-3.2l-15.4,13.4L366.1,120.5z M378.7,109.1l1,1c1.4,1.6,2.6,3.4,0.8,5c-1.8,1.8-3.6,0.2-5-1.4l-1-1
	L378.7,109.1z M335.1,96.5l-4.4-2.2l3-21.2l3.8,1.8l-2.6,16.4l11.8-12l3.6,1.8L335.1,96.5z M347.5,104.1l12.4-15.8l9.2,7.2l-1.8,2.4
	l-6-4.8l-3,4l5.6,4.4l-1.8,2.4l-5.6-4.4l-3.6,4.6l6.2,5l-1.8,2.4L347.5,104.1z M218.1,100.7L208.3,83l3.6-1.8l8.4,15l6.8-3.8
	l1.6,2.8L218.1,100.7z M326.1,325.8l1.4,3.8l-3.8,1.4l-1.4-3.8L326.1,325.8z M301.4,316.2l-3.4,21.4l4.2-1l0.8-5l8-1.8l2.6,4.2
	l4.4-1l-12-18.2L301.4,316.2z M303.2,328.6l1.2-8.6l4.6,7.6L303.2,328.6z M389.7,273.3c-1.8-1.4-4-1.6-6.6,0
	c0.6-2.2-0.4-4.6-1.8-5.4c-2.6-2-5.8-0.4-8,2.4c-2.2,3-2.4,6.2,0.6,8.4c1.8,1.4,3.8,1.2,5.8,0c-0.6,2.6,0,4.6,1.8,5.8
	c3.2,2.4,6.6,1,8.8-2.2C392.7,279.1,393.1,275.7,389.7,273.3L389.7,273.3z M380.7,274.5c-1.4,0.8-3,1.8-4.4,0.8s-1.2-2.6-0.2-3.8
	c1-1.4,2.2-1.4,3.6-0.6C380.5,271.9,380.9,273.5,380.7,274.5z M388.1,280.5c-1,1.4-2.8,1.8-4.2,0.8s-1.6-2.4-1.2-4
	c1.6-1,3.2-1.8,5-0.6C388.9,277.5,388.9,279.1,388.1,280.5L388.1,280.5z M269.8,318.2l-5.4-0.4l-1.2,20.2l5.4,0.4
	c6.2,0.4,11.8-1.6,12.2-9.4C281.4,320.8,275.8,318.4,269.8,318.2z M276.6,328.6c-0.2,4.4-3.6,6.8-7,6.6l-2.2-0.2l0.8-13.8l2.2,0.2
	C273.8,321.6,276.8,324.2,276.6,328.6z M153.8,175.8c6,1.8,11-0.4,12.8-6.6c1.8-6-1.6-10.6-7.4-12.2c-5.8-1.8-11,0.6-12.6,6.6
	C144.6,169.6,148,174.2,153.8,175.8z M149.6,164.4c1.2-3.8,5.2-4.4,8.6-3.4c3.6,1,6.6,3.4,5.4,7.4c-1.2,4-5.2,4.4-8.6,3.4
	C151.4,170.8,148.4,168.2,149.6,164.4z M332.3,305.5l-5,2.6l9.6,17.8l5-2.6c5.4-3,9.2-7.4,5.4-14.4
	C343.5,301.9,337.7,302.7,332.3,305.5L332.3,305.5z M340.9,320.2l-2,1.2l-6.6-12l2-1.2c3-1.8,7-1,9,2.8
	C345.7,314.8,343.9,318.4,340.9,320.2z M244,313.1l11.6,3l-0.8,3l-7.6-2l-1.4,5l7,1.8l-0.8,3l-7-1.8l-1.6,5.4l7.8,2l-0.8,3l-11.6-3
	L244,313.1z M356.5,309.7l2.2,3.4l-3.4,2.2l-2.2-3.4L356.5,309.7z M364.1,281.7l14.2,14.4l-2.8,2.8l-11-11.2l-0.6,4.4l-3.2-0.4
	l1-7.6L364.1,281.7z M155.6,234.2l-8.6,2.4l-1.2-4l19.4-5.6l3,10.8l-3,1l-2-7l-4.8,1.4l1.8,6.6l-3,1L155.6,234.2z M412,239.5
	c-0.4,1.6-1.2,3.2-1.8,4.4l-3.4-1.2c0.8-0.8,1.8-1.8,2-3.6c0.6-2,0.4-4.4-2.2-5.2c-2.4-0.8-4,1.2-4.8,3.4c-0.4,1.2-0.6,2.4-0.6,3.6
	l-10.4-3.2l3.4-11.2l2.8,1l-2.2,7.6l4.2,1.4c0-0.6,0.2-1.2,0.4-1.8c0.8-2.6,3.2-5.8,8.2-4.4C411.2,231.2,413.2,234.8,412,239.5
	L412,239.5z M151.8,200.4c-7-0.4-10.6-5-10.2-11.6c0-1.4,0.4-3,1.2-4.6l3.4,0.6c-1,1.6-1.4,2.8-1.4,4.2c-0.2,4.2,2.8,6.8,7,7.2
	c4.2,0.2,7.4-2,7.6-6.2c0.2-1.6-0.2-3.4-0.6-4.4h3.4c0.2,1.6,0.4,3,0.4,4.6C162.2,196.6,158.6,201,151.8,200.4L151.8,200.4z
	 M174.9,251.9c-2.8-5.6-8.2-7-13.6-4.4c-5.4,2.6-8,7.8-5.2,13.4c2.8,5.6,8.4,7,13.8,4.2C175.3,262.7,177.7,257.7,174.9,251.9
	L174.9,251.9z M168.2,261.7c-3.2,1.8-7.2,1.8-9-1.8s0.8-6.6,4.2-8.4c3.2-1.6,7.2-1.8,8.8,1.8C173.7,256.9,171.3,260.1,168.2,261.7
	L168.2,261.7z M399.6,252.1c-3.4-1.8-6.4-1-8.2,2.4c-0.8,1.6-0.8,2.8,0,4.4c-2.6-1.6-5.2-4-3.4-7c0.6-1.4,1.4-2,2.2-2.8l-2.6-1.8
	c-1.2,1-1.8,2-2.4,3.4c-2.8,5.8,1.8,10.2,6.6,12.4c4.2,2,8.8,3,11.6-1.8C405.2,257.1,403.6,253.9,399.6,252.1L399.6,252.1z
	 M400.4,259.9c-1,1.8-2.8,1.8-4.6,1c-1.8-1-3-2.4-2.2-4.2c1-1.8,2.8-1.8,4.6-0.8C400,256.7,401.4,258.3,400.4,259.9z M193.7,280.7
	l-10.2,8.2c-4.2,3.4-8,2.4-11.2-1.8c-3.2-4-3.4-8,1-11.2l10.2-8l2.4,3.2l-9,7.2c-2.6,2-3.8,4.4-1.8,6.8c1.8,2.4,4.4,1.8,7-0.2l9-7.4
	L193.7,280.7z M225.5,305.1l-5-2.4l-9,18.2l5,2.4c5.4,2.8,11.4,3.4,15-3.8C234.9,312.3,230.9,308.1,225.5,305.1L225.5,305.1z
	 M227.5,317.6c-2,4-6,4.8-9,3.2l-2-1l6.2-12.4l2,1C227.7,309.9,229.5,313.6,227.5,317.6z M212.9,297.9l-12.8,15.6l-3.8-3l3.6-16.6
	l-9.6,11.8l-3-2.4l12.8-15.6l3.8,3.2l-3.6,16.6l9.6-11.8L212.9,297.9z"/>
</svg>
